<svg width="1584" height="358" viewBox="0 0 1584 358" fill="none" xmlns="http://www.w3.org/2000/svg">
<path d="M328.289 339.12C319.169 336.76 315.709 333.56 256.109 272.12C223.789 238.8 188.799 202.75 178.349 192.01C167.899 181.26 135.109 147.39 105.469 116.74C75.8387 86.08 51.2187 61 50.7487 61C50.2787 61 49.7687 104.31 49.6187 157.25L49.3487 253.5L47.0287 258.21C44.4187 263.5 39.1787 268.55 34.0587 270.69C29.3187 272.67 18.8187 272.54 14.6687 270.45C9.14874 267.68 3.01874 261.02 1.34874 256.01C0.00873506 251.97 -0.141259 237.56 0.0887405 137.85L0.348735 24.3L3.84874 17.44C6.36874 12.5 8.70873 9.54999 12.2187 6.89999C20.9487 0.309994 23.0887 0 59.7887 0C95.4987 0 97.2687 0.230005 106.889 6.13C109.549 7.76 137.609 36.02 174.499 74.21C283.099 186.63 317.939 222.49 318.909 222.83C319.489 223.04 319.849 206.08 319.849 178.76C319.849 129.94 320.069 127.79 325.819 120.84C332.419 112.86 345.269 109.72 354.349 113.87C359.409 116.18 366.169 123.48 367.969 128.58C369.109 131.81 369.349 148.61 369.349 223.5V314.5L366.459 320.75C363.139 327.96 356.919 334.19 350.029 337.25C344.969 339.49 333.529 340.48 328.289 339.12ZM121.819 338.53C116.099 336.68 109.629 331.19 106.089 325.17L103.349 320.5V243.5L106.019 238.5C107.489 235.75 112.139 230.12 116.349 226L123.999 218.5L141.449 236.5C151.039 246.4 159.789 256.17 160.869 258.21C162.699 261.64 162.849 263.94 162.849 288.78C162.849 319.61 162.289 322.95 155.839 330.27C153.629 332.78 149.849 335.79 147.439 336.96C141.619 339.77 128.209 340.6 121.819 338.53ZM260.549 74.17C251.869 65.42 245.299 57.93 244.389 55.75C242.469 51.16 242.209 22.88 244.029 16.81C245.559 11.67 252.219 4.19 257.309 1.88C260.579 0.390005 263.909 0.0399988 274.849 0.0299988C286.989 0.0199988 288.869 0.259994 293.469 2.39999C298.529 4.75999 302.089 8.48 305.229 14.7C307.619 19.42 307.599 53.63 305.209 58.3C303.409 61.81 289.569 76.39 280.759 84.05L275.179 88.91L260.549 74.17Z" fill="#7535D3"/>
<path d="M436.586 228V104.063H470.911V138.387L464.461 128.021C468.915 119.728 475.288 113.354 483.581 108.9C491.874 104.447 501.32 102.22 511.916 102.22C521.745 102.22 530.499 104.216 538.178 108.209C546.011 112.049 552.154 118.038 556.608 126.178C561.061 134.164 563.288 144.454 563.288 157.047V228H527.351V162.576C527.351 152.593 525.124 145.221 520.67 140.461C516.37 135.7 510.227 133.319 502.241 133.319C496.559 133.319 491.414 134.548 486.806 137.005C482.353 139.309 478.82 142.918 476.21 147.832C473.752 152.747 472.524 159.043 472.524 166.722V228H436.586ZM658.271 229.843C644.142 229.843 631.702 227.079 620.952 221.55C610.355 216.021 602.139 208.496 596.303 198.974C590.467 189.298 587.549 178.318 587.549 166.031C587.549 153.591 590.39 142.611 596.072 133.089C601.908 123.413 609.818 115.888 619.8 110.513C629.783 104.984 641.071 102.22 653.664 102.22C665.797 102.22 676.701 104.83 686.376 110.052C696.205 115.12 703.961 122.492 709.643 132.167C715.326 141.689 718.167 153.131 718.167 166.492C718.167 167.874 718.09 169.487 717.936 171.33C717.783 173.019 717.629 174.632 717.476 176.167H616.805V155.204H698.586L684.764 161.424C684.764 154.974 683.458 149.368 680.847 144.607C678.237 139.846 674.627 136.16 670.02 133.55C665.413 130.785 660.038 129.403 653.894 129.403C647.751 129.403 642.299 130.785 637.538 133.55C632.931 136.16 629.322 139.923 626.711 144.838C624.1 149.598 622.795 155.281 622.795 161.885V167.413C622.795 174.171 624.254 180.16 627.172 185.382C630.243 190.45 634.467 194.366 639.842 197.131C645.371 199.742 651.821 201.047 659.193 201.047C665.797 201.047 671.556 200.049 676.47 198.052C681.539 196.056 686.146 193.061 690.292 189.068L709.413 209.801C703.731 216.251 696.589 221.243 687.989 224.775C679.388 228.154 669.483 229.843 658.271 229.843ZM794.386 229.843C784.096 229.843 774.882 227.846 766.742 223.853C758.756 219.86 752.536 213.794 748.082 205.654C743.628 197.361 741.402 186.841 741.402 174.094V104.063H777.339V168.796C777.339 179.085 779.489 186.688 783.789 191.602C788.243 196.363 794.463 198.743 802.449 198.743C807.978 198.743 812.892 197.592 817.192 195.288C821.492 192.831 824.871 189.145 827.328 184.23C829.786 179.162 831.014 172.866 831.014 165.34V104.063H866.952V228H832.857V193.906L839.077 203.811C834.931 212.412 828.787 218.939 820.648 223.393C812.662 227.693 803.908 229.843 794.386 229.843ZM900.245 228V104.063H934.57V139.078L929.732 128.942C933.418 120.188 939.331 113.584 947.47 109.131C955.61 104.523 965.516 102.22 977.188 102.22V135.392C975.652 135.239 974.27 135.162 973.041 135.162C971.812 135.009 970.507 134.932 969.125 134.932C959.296 134.932 951.31 137.773 945.166 143.455C939.177 148.984 936.182 157.661 936.182 169.487V228H900.245ZM1056.63 229.843C1043.42 229.843 1031.67 227.079 1021.38 221.55C1011.25 216.021 1003.18 208.496 997.195 198.974C991.359 189.298 988.441 178.318 988.441 166.031C988.441 153.591 991.359 142.611 997.195 133.089C1003.18 123.413 1011.25 115.888 1021.38 110.513C1031.67 104.984 1043.42 102.22 1056.63 102.22C1069.68 102.22 1081.36 104.984 1091.65 110.513C1101.94 115.888 1110 123.337 1115.83 132.858C1121.67 142.38 1124.59 153.438 1124.59 166.031C1124.59 178.318 1121.67 189.298 1115.83 198.974C1110 208.496 1101.94 216.021 1091.65 221.55C1081.36 227.079 1069.68 229.843 1056.63 229.843ZM1056.63 200.356C1062.62 200.356 1067.99 198.974 1072.76 196.209C1077.52 193.445 1081.28 189.529 1084.04 184.461C1086.81 179.239 1088.19 173.096 1088.19 166.031C1088.19 158.813 1086.81 152.67 1084.04 147.602C1081.28 142.534 1077.52 138.618 1072.76 135.853C1067.99 133.089 1062.62 131.707 1056.63 131.707C1050.64 131.707 1045.27 133.089 1040.5 135.853C1035.74 138.618 1031.9 142.534 1028.99 147.602C1026.22 152.67 1024.84 158.813 1024.84 166.031C1024.84 173.096 1026.22 179.239 1028.99 184.461C1031.9 189.529 1035.74 193.445 1040.5 196.209C1045.27 198.974 1050.64 200.356 1056.63 200.356ZM1148.61 228V104.063H1182.93V138.387L1176.48 128.021C1180.94 119.728 1187.31 113.354 1195.6 108.9C1203.9 104.447 1213.34 102.22 1223.94 102.22C1233.77 102.22 1242.52 104.216 1250.2 108.209C1258.03 112.049 1264.18 118.038 1268.63 126.178C1273.08 134.164 1275.31 144.454 1275.31 157.047V228H1239.37V162.576C1239.37 152.593 1237.15 145.221 1232.69 140.461C1228.39 135.7 1222.25 133.319 1214.26 133.319C1208.58 133.319 1203.44 134.548 1198.83 137.005C1194.38 139.309 1190.84 142.918 1188.23 147.832C1185.78 152.747 1184.55 159.043 1184.55 166.722V228H1148.61ZM1370.29 229.843C1356.17 229.843 1343.73 227.079 1332.97 221.55C1322.38 216.021 1314.16 208.496 1308.33 198.974C1302.49 189.298 1299.57 178.318 1299.57 166.031C1299.57 153.591 1302.41 142.611 1308.1 133.089C1313.93 123.413 1321.84 115.888 1331.82 110.513C1341.81 104.984 1353.09 102.22 1365.69 102.22C1377.82 102.22 1388.72 104.83 1398.4 110.052C1408.23 115.12 1415.98 122.492 1421.67 132.167C1427.35 141.689 1430.19 153.131 1430.19 166.492C1430.19 167.874 1430.11 169.487 1429.96 171.33C1429.81 173.019 1429.65 174.632 1429.5 176.167H1328.83V155.204H1410.61L1396.79 161.424C1396.79 154.974 1395.48 149.368 1392.87 144.607C1390.26 139.846 1386.65 136.16 1382.04 133.55C1377.44 130.785 1372.06 129.403 1365.92 129.403C1359.77 129.403 1354.32 130.785 1349.56 133.55C1344.95 136.16 1341.34 139.923 1338.73 144.838C1336.12 149.598 1334.82 155.281 1334.82 161.885V167.413C1334.82 174.171 1336.28 180.16 1339.19 185.382C1342.27 190.45 1346.49 194.366 1351.86 197.131C1357.39 199.742 1363.84 201.047 1371.22 201.047C1377.82 201.047 1383.58 200.049 1388.49 198.052C1393.56 196.056 1398.17 193.061 1402.32 189.068L1421.44 209.801C1415.75 216.251 1408.61 221.243 1400.01 224.775C1391.41 228.154 1381.51 229.843 1370.29 229.843ZM1435.08 228L1490.59 155.204L1489.9 175.016L1436.69 104.063H1477L1510.64 150.366L1495.43 150.827L1530.22 104.063H1568.46L1515.01 174.324V154.974L1570.3 228H1529.53L1494.28 178.701L1509.25 180.775L1474.24 228H1435.08Z" fill="white"/>
<path d="M458.046 335V282.386H437.357V272.576H490.328V282.386H469.639V335H458.046ZM557.885 335V272.576H603.454V282.296H569.478V325.28H604.703V335H557.885ZM568.586 308.069V298.527H599.62V308.069H568.586ZM705.376 335.892C700.62 335.892 696.191 335.119 692.089 333.573C688.046 331.968 684.509 329.739 681.477 326.885C678.504 323.972 676.186 320.553 674.521 316.63C672.856 312.706 672.024 308.425 672.024 303.788C672.024 299.151 672.856 294.87 674.521 290.947C676.186 287.023 678.534 283.634 681.566 280.78C684.598 277.867 688.135 275.638 692.178 274.092C696.221 272.487 700.65 271.684 705.465 271.684C710.578 271.684 715.245 272.576 719.466 274.36C723.687 276.084 727.254 278.67 730.167 282.118L722.677 289.163C720.417 286.726 717.891 284.912 715.097 283.723C712.302 282.475 709.27 281.851 706.001 281.851C702.731 281.851 699.728 282.386 696.994 283.456C694.318 284.526 691.97 286.042 689.949 288.004C687.987 289.966 686.441 292.284 685.312 294.96C684.241 297.635 683.706 300.578 683.706 303.788C683.706 306.998 684.241 309.941 685.312 312.617C686.441 315.292 687.987 317.611 689.949 319.572C691.97 321.534 694.318 323.05 696.994 324.12C699.728 325.191 702.731 325.726 706.001 325.726C709.27 325.726 712.302 325.131 715.097 323.942C717.891 322.694 720.417 320.821 722.677 318.324L730.167 325.458C727.254 328.847 723.687 331.433 719.466 333.216C715.245 335 710.549 335.892 705.376 335.892ZM799.348 335V272.576H808.89L848.039 320.643H843.313V272.576H854.816V335H845.275L806.126 286.934H810.852V335H799.348ZM959.65 335.892C954.775 335.892 950.287 335.089 946.184 333.484C942.082 331.879 938.515 329.649 935.483 326.796C932.451 323.883 930.103 320.494 928.438 316.63C926.774 312.706 925.941 308.425 925.941 303.788C925.941 299.151 926.774 294.9 928.438 291.036C930.103 287.112 932.451 283.723 935.483 280.87C938.515 277.957 942.082 275.697 946.184 274.092C950.287 272.487 954.745 271.684 959.561 271.684C964.436 271.684 968.895 272.487 972.937 274.092C977.04 275.697 980.607 277.957 983.639 280.87C986.671 283.723 989.019 287.112 990.684 291.036C992.348 294.9 993.181 299.151 993.181 303.788C993.181 308.425 992.348 312.706 990.684 316.63C989.019 320.553 986.671 323.942 983.639 326.796C980.607 329.649 977.04 331.879 972.937 333.484C968.895 335.089 964.466 335.892 959.65 335.892ZM959.561 325.726C962.712 325.726 965.625 325.191 968.3 324.12C970.976 323.05 973.294 321.534 975.256 319.572C977.218 317.551 978.734 315.232 979.804 312.617C980.934 309.941 981.498 306.998 981.498 303.788C981.498 300.578 980.934 297.665 979.804 295.049C978.734 292.373 977.218 290.055 975.256 288.093C973.294 286.072 970.976 284.526 968.3 283.456C965.625 282.386 962.712 281.851 959.561 281.851C956.41 281.851 953.497 282.386 950.822 283.456C948.206 284.526 945.887 286.072 943.866 288.093C941.904 290.055 940.358 292.373 939.229 295.049C938.158 297.665 937.623 300.578 937.623 303.788C937.623 306.939 938.158 309.852 939.229 312.527C940.358 315.203 941.904 317.551 943.866 319.572C945.828 321.534 948.146 323.05 950.822 324.12C953.497 325.191 956.41 325.726 959.561 325.726ZM1064.33 335V272.576H1075.92V325.191H1108.56V335H1064.33ZM1204.68 335.892C1199.81 335.892 1195.32 335.089 1191.22 333.484C1187.12 331.879 1183.55 329.649 1180.52 326.796C1177.49 323.883 1175.14 320.494 1173.47 316.63C1171.81 312.706 1170.98 308.425 1170.98 303.788C1170.98 299.151 1171.81 294.9 1173.47 291.036C1175.14 287.112 1177.49 283.723 1180.52 280.87C1183.55 277.957 1187.12 275.697 1191.22 274.092C1195.32 272.487 1199.78 271.684 1204.6 271.684C1209.47 271.684 1213.93 272.487 1217.97 274.092C1222.07 275.697 1225.64 277.957 1228.67 280.87C1231.7 283.723 1234.05 287.112 1235.72 291.036C1237.38 294.9 1238.21 299.151 1238.21 303.788C1238.21 308.425 1237.38 312.706 1235.72 316.63C1234.05 320.553 1231.7 323.942 1228.67 326.796C1225.64 329.649 1222.07 331.879 1217.97 333.484C1213.93 335.089 1209.5 335.892 1204.68 335.892ZM1204.6 325.726C1207.75 325.726 1210.66 325.191 1213.33 324.12C1216.01 323.05 1218.33 321.534 1220.29 319.572C1222.25 317.551 1223.77 315.232 1224.84 312.617C1225.97 309.941 1226.53 306.998 1226.53 303.788C1226.53 300.578 1225.97 297.665 1224.84 295.049C1223.77 292.373 1222.25 290.055 1220.29 288.093C1218.33 286.072 1216.01 284.526 1213.33 283.456C1210.66 282.386 1207.75 281.851 1204.6 281.851C1201.44 281.851 1198.53 282.386 1195.86 283.456C1193.24 284.526 1190.92 286.072 1188.9 288.093C1186.94 290.055 1185.39 292.373 1184.26 295.049C1183.19 297.665 1182.66 300.578 1182.66 303.788C1182.66 306.939 1183.19 309.852 1184.26 312.527C1185.39 315.203 1186.94 317.551 1188.9 319.572C1190.86 321.534 1193.18 323.05 1195.86 324.12C1198.53 325.191 1201.44 325.726 1204.6 325.726ZM1338.52 335.892C1333.65 335.892 1329.16 335.119 1325.05 333.573C1321.01 331.968 1317.47 329.739 1314.44 326.885C1311.41 323.972 1309.06 320.553 1307.4 316.63C1305.73 312.706 1304.9 308.425 1304.9 303.788C1304.9 299.151 1305.73 294.87 1307.4 290.947C1309.06 287.023 1311.41 283.634 1314.44 280.78C1317.53 277.867 1321.13 275.638 1325.23 274.092C1329.34 272.487 1333.82 271.684 1338.7 271.684C1343.99 271.684 1348.75 272.546 1352.97 274.271C1357.25 275.995 1360.84 278.521 1363.76 281.851L1356.45 288.985C1354.01 286.547 1351.36 284.764 1348.51 283.634C1345.71 282.445 1342.62 281.851 1339.23 281.851C1335.96 281.851 1332.93 282.386 1330.14 283.456C1327.34 284.526 1324.94 286.042 1322.91 288.004C1320.89 289.966 1319.32 292.284 1318.19 294.96C1317.12 297.635 1316.58 300.578 1316.58 303.788C1316.58 306.939 1317.12 309.852 1318.19 312.527C1319.32 315.203 1320.89 317.551 1322.91 319.572C1324.94 321.534 1327.31 323.05 1330.05 324.12C1332.78 325.191 1335.82 325.726 1339.14 325.726C1342.24 325.726 1345.21 325.25 1348.06 324.299C1350.98 323.288 1353.74 321.623 1356.36 319.305L1362.96 327.955C1359.69 330.571 1355.88 332.562 1351.54 333.93C1347.26 335.238 1342.92 335.892 1338.52 335.892ZM1362.96 327.955L1351.99 326.439V303.075H1362.96V327.955ZM1437.1 335V272.576H1448.7V335H1437.1ZM1515.61 335L1543.7 272.576H1555.11L1583.29 335H1571.16L1547 278.729H1551.64L1527.56 335H1515.61ZM1528.54 320.553L1531.66 311.457H1565.37L1568.49 320.553H1528.54Z" fill="white"/>
</svg>
